HIERARCHY
ROOT lpalm
{
	OFFSET	0.000000	0.000000	0.000000
	CHANNELS	6	Xposition	Yposition	Zposition	Zrotation	Xrotation	Yrotation
	JOINT lthumbA
	{
		OFFSET	-6.570000	-2.200000	3.500000
		CHANNELS	3	Zrotation	Xrotation	Yrotation
		JOINT lthumbB
		{
			OFFSET	0.000000	0.000000	7.000000
			CHANNELS	3	Zrotation	Xrotation	Yrotation
			JOINT lthumbC
			{
				OFFSET	0.000000	0.000000	3.800000
				CHANNELS	3	Zrotation	Xrotation	Yrotation
				End Site
				{
					OFFSET	0.000000	0.000000	3.000000
				}
			}
		}
	}
	JOINT lindexA
	{
		OFFSET	-2.730000	0.000000	10.400000
		CHANNELS	3	Zrotation	Xrotation	Yrotation
		JOINT lindexB
		{
			OFFSET	0.000000	0.000000	4.600000
			CHANNELS	3	Zrotation	Xrotation	Yrotation
			JOINT lindexC
			{
				OFFSET	0.000000	0.000000	3.000000
				CHANNELS	3	Zrotation	Xrotation	Yrotation
				End Site
				{
					OFFSET	0.000000	0.000000	2.600000
				}
			}
		}
	}
	JOINT lmiddleA
	{
		OFFSET	-0.610000	0.000000	10.000000
		CHANNELS	3	Zrotation	Xrotation	Yrotation
		JOINT lmiddleB
		{
			OFFSET	0.000000	0.000000	5.100000
			CHANNELS	3	Zrotation	Xrotation	Yrotation
			JOINT lmiddleC
			{
				OFFSET	0.000000	0.000000	3.100000
				CHANNELS	3	Zrotation	Xrotation	Yrotation
				End Site
				{
					OFFSET	0.000000	0.000000	2.800000
				}
			}
		}
	}
	JOINT lringA
	{
		OFFSET	1.880000	0.000000	9.700000
		CHANNELS	3	Zrotation	Xrotation	Yrotation
		JOINT lringB
		{
			OFFSET	0.000000	0.000000	4.800000
			CHANNELS	3	Zrotation	Xrotation	Yrotation
			JOINT lringC
			{
				OFFSET	0.000000	0.000000	3.000000
				CHANNELS	3	Zrotation	Xrotation	Yrotation
				End Site
				{
					OFFSET	0.000000	0.000000	2.700000
				}
			}
		}
	}
	JOINT llittleA
	{
		OFFSET	3.540000	0.000000	8.600000
		CHANNELS	3	Zrotation	Xrotation	Yrotation
		JOINT llittleB
		{
			OFFSET	0.000000	0.000000	3.800000
			CHANNELS	3	Zrotation	Xrotation	Yrotation
			JOINT llittleC
			{
				OFFSET	0.000000	0.000000	2.300000
				CHANNELS	3	Zrotation	Xrotation	Yrotation
				End Site
				{
					OFFSET	0.000000	0.000000	2.400000
				}
			}
		}
	}
}
MOTION
Frames:	36
Frame Time:	0.013676
0.00	0.00	0.00	0.00	-0.14	-0.21	-22.32	0.20	-65.20	-15.00	0.00	0.00	0.00	0.00	7.45	0.00	-48.08	1.56	0.00	4.86	0.00	0.00	2.81	0.00	0.00	-26.72	9.46	0.00	9.07	0.00	0.00	4.36	0.00	0.00	-3.66	8.04	0.00	22.25	0.00	0.00	2.90	0.00	0.00	20.55	-0.22	0.00	21.78	0.00	0.00	0.00	0.00
0.00	0.00	0.00	0.00	0.10	-0.09	-22.13	0.02	-64.94	-15.00	0.00	0.00	0.00	0.00	7.23	0.00	-47.80	1.67	0.00	4.88	0.00	0.00	2.78	0.00	0.00	-26.65	9.69	0.00	8.96	0.00	0.00	4.29	0.00	0.00	-3.80	8.01	0.00	22.11	0.00	0.00	2.90	0.00	0.00	20.50	-0.26	0.00	21.71	0.00	0.00	0.00	0.00
0.00	0.00	0.00	0.00	0.51	0.10	-21.83	-0.16	-64.78	-15.00	0.00	0.00	0.00	0.00	6.97	0.00	-47.08	1.89	0.00	4.90	0.00	0.00	2.70	0.00	0.00	-26.03	9.82	0.00	8.88	0.00	0.00	4.24	0.00	0.00	-3.54	7.83	0.00	22.07	0.00	0.00	2.87	0.00	0.00	20.51	-0.38	0.00	21.64	0.00	0.00	0.00	0.00
0.00	0.00	0.00	-0.01	1.05	0.36	-21.44	-0.38	-64.56	-15.00	0.00	0.00	0.00	0.00	6.76	0.00	-46.23	2.10	0.00	4.91	0.00	0.00	2.66	0.00	0.00	-25.31	10.05	0.00	8.74	0.00	0.00	4.19	0.00	0.00	-3.24	7.61	0.00	22.11	0.00	0.00	2.78	0.00	0.00	20.49	-0.58	0.00	21.64	0.00	0.00	0.00	0.00
0.00	0.00	0.00	-0.01	1.52	0.43	-21.12	-0.93	-63.42	-15.00	0.00	0.00	0.00	0.00	6.84	0.00	-45.49	2.04	0.00	4.93	0.00	0.00	2.57	0.00	0.00	-25.18	10.14	0.00	8.61	0.00	0.00	4.16	0.00	0.00	-3.06	7.52	0.00	22.14	0.00	0.00	2.77	0.00	0.00	20.38	-0.62	0.00	21.64	0.00	0.00	0.00	0.00
0.00	0.00	0.00	-0.01	1.52	0.43	-21.12	-0.93	-63.42	-15.00	0.00	0.00	0.00	0.00	6.84	0.00	-45.49	2.04	0.00	4.93	0.00	0.00	2.57	0.00	0.00	-25.18	10.14	0.00	8.61	0.00	0.00	4.16	0.00	0.00	-3.06	7.52	0.00	22.14	0.00	0.00	2.77	0.00	0.00	20.38	-0.62	0.00	21.64	0.00	0.00	0.00	0.00
0.00	0.00	0.00	-0.01	1.64	0.52	-21.05	-1.34	-62.40	-15.00	0.00	0.00	0.00	0.00	6.83	0.00	-45.16	2.03	0.00	5.00	0.00	0.00	2.51	0.00	0.00	-25.06	10.14	0.00	8.54	0.00	0.00	4.14	0.00	0.00	-3.06	7.55	0.00	22.16	0.00	0.00	2.73	0.00	0.00	20.28	-0.68	0.00	21.68	0.00	0.00	0.00	0.00
0.00	0.00	0.00	-0.02	1.70	0.56	-21.02	-1.58	-61.78	-15.00	-0.05	0.18	0.00	0.00	6.73	0.00	-44.98	2.06	0.00	5.03	0.00	0.00	2.51	0.00	0.00	-24.95	10.14	0.00	8.51	0.00	0.00	4.14	0.00	0.00	-3.02	7.47	0.00	22.21	0.00	0.00	2.70	0.00	0.00	20.28	-0.72	0.00	21.71	0.00	0.00	0.00	0.00
0.00	0.00	0.00	-0.02	1.86	0.62	-20.92	-1.73	-61.42	-15.00	-0.10	0.37	0.00	0.00	6.65	0.00	-44.66	2.11	0.00	5.10	0.00	0.00	2.44	0.00	0.00	-24.79	10.13	0.00	8.54	0.00	0.00	4.06	0.00	0.00	-2.69	7.33	0.00	22.25	0.00	0.00	2.70	0.00	0.00	20.37	-0.87	0.00	21.71	0.00	0.00	0.00	0.00
0.00	0.00	0.00	-0.03	2.24	0.75	-20.69	-1.98	-60.86	-15.00	-0.14	0.51	0.00	0.00	6.67	0.00	-44.07	2.04	0.00	5.17	0.00	0.00	2.38	0.00	0.00	-24.26	9.89	0.00	8.57	0.00	0.00	3.98	0.00	0.00	-2.49	7.30	0.00	22.40	0.00	0.00	2.68	0.00	0.00	20.49	-1.11	0.00	21.80	0.00	0.00	0.00	0.00
0.00	0.00	0.00	-0.05	2.72	1.07	-20.41	-2.32	-60.02	-15.00	-0.19	0.72	0.00	0.00	6.70	0.00	-42.65	2.00	0.00	5.36	0.00	0.00	2.19	0.00	0.00	-23.04	9.31	0.00	8.77	0.00	0.00	3.91	0.00	0.00	-1.20	6.70	0.00	22.61	0.00	0.00	2.65	0.00	0.00	20.93	-1.45	0.00	21.81	0.00	0.00	0.00	0.00
0.00	0.00	0.00	-0.08	3.53	1.32	-19.99	-2.90	-58.47	-15.00	-0.32	1.21	0.00	0.00	6.98	0.00	-39.74	1.85	0.00	5.71	0.00	0.00	1.98	0.00	0.00	-20.61	8.40	0.00	9.02	0.00	0.00	3.78	0.00	0.00	0.75	5.82	0.00	22.89	0.00	0.00	2.57	0.00	0.00	21.40	-1.74	0.00	21.71	0.00	0.00	0.00	0.00
0.00	0.00	0.00	-0.12	4.44	1.53	-19.63	-3.76	-55.83	-14.98	-0.72	2.70	0.00	0.00	7.55	0.00	-36.78	1.65	0.00	6.04	0.00	0.00	1.89	0.00	0.00	-18.07	7.77	0.00	9.21	0.00	0.00	3.68	0.00	0.00	2.47	5.24	0.00	23.15	0.00	0.00	2.50	0.00	0.00	21.71	-1.88	0.00	21.73	0.00	0.00	0.00	0.00
0.00	0.00	0.00	-0.15	5.33	1.60	-19.42	-4.93	-51.92	-14.94	-1.36	5.09	0.00	0.00	8.25	0.00	-35.08	1.19	0.00	6.18	0.00	0.00	1.76	0.00	0.00	-16.65	7.31	0.00	9.45	0.00	0.00	3.60	0.00	0.00	3.17	5.00	0.00	23.31	0.00	0.00	2.48	0.00	0.00	21.70	-2.00	0.00	21.83	0.00	0.00	0.00	0.00
0.00	0.00	0.00	-0.19	6.22	1.74	-19.33	-6.11	-47.73	-14.87	-2.01	7.52	0.00	0.00	8.94	0.00	-33.79	0.60	0.00	6.44	0.00	0.00	1.57	0.00	0.00	-15.91	6.92	0.00	9.64	0.00	0.00	3.53	0.00	0.00	3.26	4.88	0.00	23.24	0.00	0.00	2.50	0.00	0.00	21.58	-1.91	0.00	21.92	0.00	0.00	0.00	0.00
0.00	0.00	0.00	-0.25	7.13	2.03	-19.33	-7.21	-43.69	-14.79	-2.50	9.38	0.00	0.00	9.45	0.00	-31.93	0.01	0.00	6.74	0.00	0.00	1.32	0.00	0.00	-14.44	6.63	0.00	9.70	0.00	0.00	3.32	0.00	0.00	3.74	4.64	0.00	22.98	0.00	0.00	2.43	0.00	0.00	21.57	-1.71	0.00	21.81	0.00	0.00	0.00	0.00
0.00	0.00	0.00	-0.39	8.74	2.51	-19.22	-8.18	-39.93	-14.75	-2.73	10.26	0.00	0.00	10.01	0.00	-29.12	-0.83	0.00	7.15	0.00	0.00	1.03	0.00	0.00	-12.13	6.29	0.00	9.77	0.00	0.00	3.12	0.00	0.00	4.60	4.40	0.00	22.72	0.00	0.00	2.35	0.00	0.00	21.22	-1.45	0.00	21.83	0.00	0.00	0.00	0.00
0.00	0.00	0.00	-0.55	10.97	2.84	-19.16	-9.28	-35.71	-14.74	-2.81	10.57	0.00	0.00	10.82	0.00	-25.06	-2.11	0.00	7.85	0.00	0.00	0.62	0.00	0.00	-8.79	5.77	0.00	10.24	0.00	0.00	2.82	0.00	0.00	6.04	4.11	0.00	22.63	0.00	0.00	2.19	0.00	0.00	20.68	-1.03	0.00	21.81	0.00	0.00	0.00	0.00
0.00	0.00	0.00	-0.76	13.93	3.05	-19.36	-10.92	-29.90	-14.72	-2.90	10.90	0.00	0.00	11.71	0.00	-20.82	-3.79	0.00	8.63	0.00	0.00	0.30	0.00	0.00	-5.21	4.98	0.00	11.20	0.00	0.00	2.61	0.00	0.00	7.62	4.27	0.00	22.79	0.00	0.00	2.01	0.00	0.00	19.87	-0.34	0.00	21.99	0.00	0.00	0.00	0.00
0.00	0.00	0.00	-1.01	17.58	3.19	-19.73	-12.81	-23.76	-14.75	-2.78	10.43	0.00	0.00	12.69	0.00	-17.75	-5.61	0.00	9.12	0.00	0.00	0.09	0.00	0.00	-2.75	4.45	0.00	12.48	0.00	0.00	2.56	0.00	0.00	8.71	4.68	0.00	23.24	0.00	0.00	1.84	0.00	0.00	18.53	0.49	0.00	22.23	0.00	0.00	0.00	0.00
0.00	0.00	0.00	-1.22	21.48	3.09	-19.61	-13.42	-21.81	-14.80	-2.44	9.14	0.00	0.00	13.61	0.00	-16.82	-7.05	0.00	9.20	0.00	0.00	0.00	0.00	0.00	-1.39	3.90	0.00	13.79	0.00	0.00	2.59	0.00	0.00	9.18	4.98	0.00	23.71	0.00	0.00	1.70	0.00	0.00	16.93	1.25	0.00	22.51	0.00	0.00	0.00	0.00
0.00	0.00	0.00	-1.40	25.35	2.96	-19.12	-13.15	-22.37	-14.87	-2.00	7.50	0.00	0.00	14.43	0.00	-17.49	-8.28	0.00	9.03	0.00	0.00	0.00	0.00	0.00	-1.21	3.52	0.00	14.66	0.00	0.00	2.56	0.00	0.00	9.06	5.26	0.00	24.13	0.00	0.00	1.60	0.00	0.00	15.23	1.76	0.00	22.82	0.00	0.00	0.00	0.00
0.00	0.00	0.00	-1.56	28.84	2.84	-18.57	-12.76	-23.25	-14.92	-1.52	5.67	0.00	0.00	15.01	0.00	-19.07	-9.51	0.00	8.72	0.00	0.00	0.00	0.00	0.00	-1.88	3.16	0.00	15.24	0.00	0.00	2.56	0.00	0.00	8.41	5.63	0.00	24.41	0.00	0.00	1.56	0.00	0.00	13.55	2.08	0.00	23.23	0.00	0.00	0.00	0.00
0.00	0.00	0.00	-1.74	31.84	2.80	-17.95	-12.41	-23.78	-14.96	-1.06	3.95	0.00	0.00	15.51	0.00	-20.38	-10.70	0.00	8.58	0.00	0.00	0.00	0.00	0.00	-2.68	2.61	0.00	15.63	0.00	0.00	2.56	0.00	0.00	7.44	6.06	0.00	24.60	0.00	0.00	1.52	0.00	0.00	11.98	2.41	0.00	23.51	0.00	0.00	0.00	0.00
0.00	0.00	0.00	-1.91	34.40	2.80	-13.41	-10.16	-21.75	-14.98	-0.70	2.62	0.00	0.00	16.02	0.00	-20.70	-11.78	0.00	8.49	0.00	0.00	0.00	0.00	0.00	-3.10	2.09	0.00	15.97	0.00	0.00	2.56	0.00	0.00	6.77	6.36	0.00	24.62	0.00	0.00	1.45	0.00	0.00	10.57	2.82	0.00	23.68	0.00	0.00	0.00	0.00
0.00	0.00	0.00	-2.14	36.91	2.86	-9.63	-8.23	-19.89	-15.00	-0.36	1.33	0.00	0.00	16.56	0.00	-20.49	-13.00	0.00	8.60	0.00	0.00	0.00	0.00	0.00	-3.51	1.56	0.00	16.38	0.00	0.00	2.56	0.00	0.00	5.80	6.75	0.00	24.55	0.00	0.00	1.43	0.00	0.00	9.04	3.23	0.00	23.82	0.00	0.00	0.00	0.00
0.00	0.00	0.00	-2.45	39.63	2.97	-6.37	-6.55	-18.19	-15.00	-0.02	0.08	0.00	0.00	17.20	0.00	-20.01	-14.26	0.00	8.84	0.00	0.00	0.00	0.00	0.00	-3.94	1.07	0.00	16.76	0.00	0.00	2.59	0.00	0.00	4.70	7.12	0.00	24.46	0.00	0.00	1.35	0.00	0.00	7.35	3.64	0.00	23.91	0.00	0.00	0.00	0.00
0.00	0.00	0.00	-2.68	42.39	2.94	-3.27	-4.83	-16.48	-15.00	0.00	0.00	0.00	0.00	17.86	0.00	-19.25	-15.45	0.00	9.03	0.00	0.00	0.00	0.00	0.00	-4.26	0.75	0.00	17.09	0.00	0.00	2.59	0.00	0.00	3.82	7.41	0.00	24.41	0.00	0.00	1.31	0.00	0.00	5.74	3.99	0.00	24.08	0.00	0.00	0.00	0.00
0.00	0.00	0.00	-2.66	44.84	2.67	-0.46	-3.05	-15.11	-15.00	0.00	0.00	0.00	0.00	18.49	0.00	-17.87	-16.00	0.00	9.24	0.00	0.00	0.00	0.00	0.00	-4.11	0.58	0.00	17.41	0.00	0.00	2.61	0.00	0.00	3.58	7.46	0.00	24.41	0.00	0.00	1.27	0.00	0.00	4.31	4.34	0.00	24.34	0.00	0.00	0.00	0.00
0.00	0.00	0.00	-2.46	46.90	2.31	1.47	-1.72	-14.48	-15.00	0.00	0.00	0.00	0.00	18.97	0.00	-15.89	-16.12	0.00	9.41	0.00	0.00	0.00	0.00	0.00	-3.47	0.56	0.00	17.69	0.00	0.00	2.61	0.00	0.00	3.65	7.39	0.00	24.60	0.00	0.00	1.21	0.00	0.00	3.02	4.67	0.00	24.42	0.00	0.00	0.00	0.00
0.00	0.00	0.00	-2.17	48.51	1.92	2.08	-1.29	-14.57	-15.00	0.00	0.00	0.00	0.00	19.24	0.00	-14.13	-16.17	0.00	9.62	0.00	0.00	0.00	0.00	0.00	-2.83	0.57	0.00	17.99	0.00	0.00	2.66	0.00	0.00	3.59	7.37	0.00	24.74	0.00	0.00	1.17	0.00	0.00	1.86	4.92	0.00	24.53	0.00	0.00	0.00	0.00
0.00	0.00	0.00	-1.83	49.82	1.55	1.38	-1.87	-15.55	-15.00	0.00	0.00	0.00	0.00	19.37	0.00	-13.28	-16.23	0.00	9.76	0.00	0.00	0.00	0.00	0.00	-2.70	0.53	0.00	18.24	0.00	0.00	2.69	0.00	0.00	3.22	7.31	0.00	24.74	0.00	0.00	1.13	0.00	0.00	0.88	5.05	0.00	24.61	0.00	0.00	0.00	0.00
0.00	0.00	0.00	-1.47	50.88	1.20	1.03	-2.27	-16.83	-15.00	0.00	0.00	0.00	0.00	19.42	0.00	-13.35	-16.51	0.00	9.86	0.00	0.00	0.00	0.00	0.00	-3.04	0.48	0.00	18.33	0.00	0.00	2.66	0.00	0.00	2.70	7.25	0.00	24.74	0.00	0.00	1.13	0.00	0.00	0.18	5.11	0.00	24.75	0.00	0.00	0.00	0.00
0.00	0.00	0.00	-1.05	51.49	0.84	1.58	-2.03	-17.69	-15.00	0.00	0.00	0.00	0.00	19.39	0.00	-13.58	-16.73	0.00	9.90	0.00	0.00	0.00	0.00	0.00	-3.34	0.42	0.00	18.37	0.00	0.00	2.64	0.00	0.00	2.54	7.28	0.00	24.90	0.00	0.00	1.07	0.00	0.00	-0.14	5.16	0.00	25.01	0.00	0.00	0.00	0.00
0.00	0.00	0.00	-1.05	51.49	0.84	1.58	-2.03	-17.69	-15.00	0.00	0.00	0.00	0.00	19.39	0.00	-13.58	-16.73	0.00	9.90	0.00	0.00	0.00	0.00	0.00	-3.34	0.42	0.00	18.37	0.00	0.00	2.64	0.00	0.00	2.54	7.28	0.00	24.90	0.00	0.00	1.07	0.00	0.00	-0.14	5.16	0.00	25.01	0.00	0.00	0.00	0.00
0.00	0.00	0.00	0.60	49.93	-0.50	-1.81	-3.68	-21.27	-15.00	0.00	0.00	0.00	0.00	18.80	0.00	-11.52	-16.66	0.00	10.75	0.00	0.00	0.00	0.00	0.00	-1.40	0.89	0.00	19.27	0.00	0.00	2.71	0.00	0.00	3.60	7.26	0.00	25.47	0.00	0.00	1.07	0.00	0.00	0.89	5.45	0.00	25.48	0.00	0.00	0.00	0.00
